<svg width="15" height="15" viewBox="0 0 15 15" fill="none" xmlns="http://www.w3.org/2000/svg">
<path d="M6.79021 9.67009H4.25118C4.10092 9.67009 3.97925 9.81466 3.97925 9.99318V14.6769C3.97925 14.8554 4.10092 15 4.25118 15H6.79021C6.94046 15 7.06196 14.8554 7.06196 14.6769V9.99296C7.06196 9.81445 6.94028 9.67009 6.79021 9.67009Z" fill="#ABABAB"/>
<path d="M10.749 0H8.20992C8.05966 0 7.93799 0.144565 7.93799 0.323083V14.6767C7.93799 14.8552 8.05966 14.9998 8.20992 14.9998H10.749C10.8992 14.9998 11.0209 14.8552 11.0209 14.6767V0.323083C11.0209 0.144565 10.8992 0 10.749 0V0Z" fill="#ABABAB"/>
<path d="M14.7282 4.36069H12.1892C12.0389 4.36069 11.9172 4.50525 11.9172 4.68377V14.6767C11.9172 14.8552 12.0389 14.9998 12.1892 14.9998H14.728C14.8783 14.9998 14.9999 14.8552 14.9999 14.6767V4.68377C14.9999 4.50547 14.8783 4.36069 14.7282 4.36069V4.36069Z" fill="#ABABAB"/>
<path d="M2.81096 4.36069H0.27193C0.121676 4.36069 0 4.50525 0 4.68377V14.6767C0 14.8552 0.121676 14.9998 0.27193 14.9998H2.81096C2.96122 14.9998 3.08289 14.8552 3.08289 14.6767V4.68377C3.08289 4.50547 2.96122 4.36069 2.81096 4.36069V4.36069Z" fill="#ABABAB"/>
</svg>
