<svg width="30" height="29" viewBox="0 0 30 29" fill="none" xmlns="http://www.w3.org/2000/svg">
<path d="M9.92982 8.37809C8.26921 8.37809 6.03256 8.52581 4.2096 8.95162C3.29852 9.16442 2.48696 9.44753 1.90201 9.8189C1.3172 10.1902 0.95 10.6559 0.95 11.2344V25.5248C0.95 26.1033 1.3172 26.569 1.90201 26.9403C2.48696 27.3117 3.29852 27.5948 4.2096 27.8076C6.03256 28.2334 8.26921 28.3811 9.92982 28.3811C11.5904 28.3811 13.8287 28.2334 15.6534 27.8076C16.5653 27.5948 17.3776 27.3117 17.9632 26.9403C18.5486 26.5691 18.9163 26.1033 18.9163 25.5248V11.2344C18.9163 10.6559 18.5491 10.1902 17.9642 9.8189C17.3791 9.44753 16.5673 9.16442 15.6558 8.95161C13.8321 8.52581 11.5937 8.37809 9.92982 8.37809ZM2.37687 22.6558V21.4783C3.31189 21.9265 4.61268 22.2203 5.95991 22.4031C7.34331 22.5909 8.78028 22.6623 9.92982 22.6623C11.0794 22.6623 12.518 22.5909 13.903 22.4031C15.2519 22.2203 16.5543 21.9265 17.4894 21.4783V22.636C17.468 22.6863 17.4138 22.7488 17.3176 22.8202C17.2179 22.8943 17.0787 22.9737 16.9005 23.0554C16.5443 23.2188 16.0372 23.3889 15.3899 23.5431C14.0956 23.8514 12.2452 24.0948 9.92982 24.0948C7.61443 24.0948 5.76405 23.8514 4.47048 23.5455C3.82353 23.3926 3.31701 23.2243 2.96165 23.0637C2.78388 22.9834 2.64525 22.9055 2.54613 22.8333C2.4506 22.7637 2.39742 22.7034 2.37687 22.6558ZM2.37687 19.7964V18.6189C3.31185 19.0672 4.61262 19.3625 5.95985 19.547C7.34325 19.7365 8.78023 19.8095 9.92982 19.8095C11.0794 19.8095 12.518 19.7365 13.9031 19.547C15.2519 19.3625 16.5543 19.0672 17.4894 18.6189V19.7763C17.4673 19.8268 17.4123 19.8894 17.3158 19.9608C17.2156 20.0349 17.0761 20.1143 16.8978 20.196C16.5412 20.3594 16.0343 20.5295 15.3874 20.6837C14.0939 20.992 12.2452 21.2354 9.92982 21.2354C7.61443 21.2354 5.76405 20.992 4.47048 20.6861C3.82353 20.5332 3.31701 20.3649 2.96165 20.2043C2.78388 20.124 2.64525 20.0461 2.54613 19.9739C2.4506 19.9043 2.39742 19.844 2.37687 19.7964ZM2.37687 16.9435V15.7659C3.31182 16.211 4.6126 16.5048 5.95988 16.6885C7.34326 16.8771 8.78023 16.9501 9.92982 16.9501C11.0794 16.9501 12.518 16.8771 13.9031 16.6876C15.2519 16.5031 16.5543 16.2078 17.4894 15.7595V16.9235C17.4673 16.974 17.4122 17.0366 17.3155 17.108C17.2151 17.1821 17.0755 17.2615 16.8968 17.3432C16.5398 17.5066 16.0323 17.6767 15.3849 17.8309C14.0906 18.1392 12.2419 18.3827 9.92982 18.3827C7.61778 18.3827 5.7674 18.1375 4.47299 17.8309C3.82562 17.6775 3.31844 17.509 2.96253 17.3487C2.78448 17.2685 2.64558 17.1909 2.54625 17.1191C2.4506 17.05 2.39742 16.9903 2.37687 16.9435ZM2.37687 14.0841V12.9065C3.31182 13.3516 4.6126 13.6454 5.95988 13.8291C7.34326 14.0177 8.78023 14.0907 9.92982 14.0907C11.0794 14.0907 12.518 14.0177 13.9031 13.8291C15.252 13.6454 16.5544 13.3516 17.4894 12.9065V14.0638C17.4665 14.1146 17.4107 14.1773 17.3137 14.2485C17.2128 14.3226 17.0728 14.4021 16.8941 14.4838C16.5367 14.6472 16.0294 14.8173 15.3824 14.9715C14.0889 15.2798 12.2419 15.5233 9.92982 15.5233C7.61778 15.5233 5.7674 15.2781 4.47299 14.9715C3.82562 14.8181 3.31844 14.6496 2.96253 14.4893C2.78448 14.4091 2.64558 14.3315 2.54625 14.2597C2.4506 14.1906 2.39742 14.1309 2.37687 14.0841ZM9.92982 9.80496C12.2121 9.80496 14.0426 10.0418 15.3345 10.3443C15.9806 10.4956 16.491 10.6631 16.8554 10.825C17.0376 10.906 17.1822 10.9851 17.2888 11.0595C17.3823 11.1247 17.4429 11.1839 17.4753 11.2344C17.4429 11.285 17.3823 11.3441 17.2888 11.4094C17.1822 11.4837 17.0376 11.5628 16.8554 11.6438C16.491 11.8057 15.9806 11.9732 15.3345 12.1245C14.0426 12.427 12.2121 12.6639 9.92982 12.6639C7.64765 12.6639 5.80216 12.4221 4.50263 12.1203C3.85271 11.9694 3.34041 11.8038 2.97873 11.6464C2.7978 11.5677 2.6558 11.4916 2.55346 11.4212C2.46249 11.3587 2.40784 11.3039 2.38221 11.2599C2.4079 11.2104 2.46258 11.1509 2.55295 11.0841C2.65396 11.0093 2.79415 10.9294 2.97312 10.8472C3.3309 10.6829 3.83861 10.5122 4.48553 10.3576C5.77903 10.0484 7.62439 9.80496 9.92982 9.80496ZM9.92982 26.9542C7.61776 26.9542 5.76737 26.7108 4.47296 26.4049C3.82559 26.252 3.31844 26.0837 2.96256 25.9231C2.78453 25.8427 2.64566 25.7649 2.54637 25.6927C2.45067 25.6231 2.39742 25.5628 2.37687 25.5152V24.3377C3.31189 24.7859 4.61268 25.0797 5.95991 25.2625C7.34331 25.4503 8.78028 25.5217 9.92982 25.5217C11.0794 25.5217 12.518 25.4486 13.9031 25.26C15.252 25.0763 16.5544 24.7825 17.4894 24.3375V25.4957C17.4688 25.5457 17.4153 25.6082 17.3194 25.6797C17.2202 25.7537 17.0814 25.8331 16.9033 25.9148C16.5474 26.0782 16.0402 26.2483 15.3924 26.4025C14.0972 26.7108 12.2452 26.9542 9.92982 26.9542Z" fill="white" stroke="white" stroke-width="0.1"/>
<path d="M21.6159 6.09477H19.503C19.4003 6.09871 19.299 6.07028 19.2134 6.01349C19.1272 5.95633 19.0614 5.87337 19.0252 5.77649C18.9902 5.68386 18.9842 5.58281 19.0078 5.48665C19.0314 5.39044 19.0836 5.30364 19.1576 5.23772L19.1582 5.23714L23.9701 1.02188L21.6159 6.09477ZM21.6159 6.09477V10.5455C21.6159 10.6754 21.6675 10.8 21.7594 10.8919C21.8513 10.9838 21.9759 11.0354 22.1058 11.0354H26.4811C26.611 11.0354 26.7356 10.9838 26.8275 10.8919C26.9194 10.8 26.971 10.6754 26.971 10.5455V6.09477L29.0859 6.09478L29.0866 6.09477C29.1859 6.0941 29.2826 6.06329 29.364 6.00642C29.4453 5.94958 29.5074 5.86939 29.5422 5.77646C29.5771 5.68384 29.5832 5.5828 29.5596 5.48665C29.536 5.39044 29.4838 5.30364 29.4098 5.23772L29.4093 5.23728L24.6169 1.02192L24.6168 1.02188C24.5274 0.943336 24.4125 0.900017 24.2934 0.900017C24.1745 0.900017 24.0596 0.943301 23.9702 1.02179L21.6159 6.09477ZM20.8179 5.11488L24.2936 2.04147L27.7838 5.11488H26.4889C26.3589 5.11488 26.2343 5.16649 26.1424 5.25838C26.0505 5.35026 25.9989 5.47488 25.9989 5.60483V10.0555H22.6036V5.60483C22.6036 5.47488 22.552 5.35026 22.4601 5.25838C22.3682 5.16649 22.2436 5.11488 22.1136 5.11488H20.8179Z" fill="white" stroke="white" stroke-width="0.2"/>
</svg>
