<svg width="48" height="48" viewBox="0 0 48 48" fill="none" xmlns="http://www.w3.org/2000/svg">
<rect width="48" height="48" rx="12.2323" fill="white"/>
<path d="M28.3086 19.7029L26.8571 20.8343V20.2857C26.8571 19.0229 25.8343 18 24.5714 18H18.2857C17.0229 18 16 19.0229 16 20.2857V27.1429C16 28.4057 17.0229 29.4286 18.2857 29.4286H24.5714C25.8343 29.4286 26.8571 28.4057 26.8571 27.1429V26.5943L28.3086 27.7257C29.8 28.8857 32 27.8286 32 25.92V21.5029C32 19.6 29.8114 18.5314 28.3086 19.6971V19.7029ZM25.7143 27.1429C25.7143 27.7714 25.2 28.2857 24.5714 28.2857H18.2857C17.6571 28.2857 17.1429 27.7714 17.1429 27.1429V20.2857C17.1429 19.6571 17.6571 19.1429 18.2857 19.1429H24.5714C25.2 19.1429 25.7143 19.6571 25.7143 20.2857V27.1429ZM30.8571 25.9257C30.8571 26.88 29.7657 27.4114 29.0114 26.8286L26.8571 25.1543V22.2857L29.0114 20.6114C29.7657 20.0286 30.8571 20.56 30.8571 21.5143V25.9314V25.9257Z" fill="#6590FF"/>
<path d="M21.7143 20.8571H19.4286C18.6743 20.8571 18.6743 22 19.4286 22H21.7143C22.4686 22 22.4686 20.8571 21.7143 20.8571Z" fill="#6590FF"/>
</svg>
