<!DOCTYPE svg PUBLIC "-//W3C//DTD SVG 1.1//EN" "http://www.w3.org/Graphics/SVG/1.1/DTD/svg11.dtd">
<!-- Uploaded to: SVG Repo, www.svgrepo.com, Transformed by: SVG Repo Mixer Tools -->
<svg width="100px" height="100px" viewBox="0 0 24 24" id="_24x24_On_Light_Clock" data-name="24x24/On Light/Clock" xmlns="http://www.w3.org/2000/svg" fill="#000000">
<g id="SVGRepo_bgCarrier" stroke-width="0"/>
<g id="SVGRepo_tracerCarrier" stroke-linecap="round" stroke-linejoin="round"/>
<g id="SVGRepo_iconCarrier"> <rect id="view-box" width="24" height="24" fill="none"/> <path id="Shape" d="M0,9.75A9.75,9.75,0,1,1,9.75,19.5,9.761,9.761,0,0,1,0,9.75Zm1.5,0A8.25,8.25,0,1,0,9.75,1.5,8.259,8.259,0,0,0,1.5,9.75Zm10.375,4.186L9.22,11.281A.754.754,0,0,1,9,10.75V5.55a.75.75,0,0,1,1.5,0v4.889l2.435,2.436a.75.75,0,1,1-1.06,1.06Z" transform="translate(2.25 2.25)" fill="#ababab"/> </g>
</svg>